


<svg xmlns="http://www.w3.org/2000/svg" xmlns:xlink="http://www.w3.org/1999/xlink" version="1.1" x="0px" y="0px" viewBox="0 0 100 125" enable-background="new 0 0 100 100" xml:space="preserve"><path d="M87.3,67.5c-0.3-1.4-0.8-2.7-1.6-3.9c-1.6-2.6-4.3-4.3-7.2-5.2c-0.5-0.1-1-0.3-1.5-0.4c-0.1-0.4-0.2-0.9-0.3-1.2  c-0.8-2.5-2.3-4.8-4.1-6.7c-0.9-1-1.9-1.8-3-2.6c-0.9-0.7-2.1-1.2-2.8-2.1c-0.6-0.9-0.6-2.3-0.9-3.3c-0.9-4-1.7-8-3.6-11.6  c-5.3-9.5-16-16.9-27-17.7c-5.8-0.4-12.3,0.8-16.8,4.6c-3.2,2.7-5.1,7.2-2,10.8c6.7,7.8,18.1,6.3,26.8,10.1c3,1.3,5.7,3.3,8.1,5.7  c2.2,2.2,4.1,4.6,6,7.1c0.9,1.2,1.9,2.5,2.8,3.7c0.9,1.1,2.2,2.3,2.8,3.6c-1.9,1-4.3,1.4-6.3,2.3c-2,0.9-4,2-6,3.1  c-3.2,1.8-6.5,3.3-10.1,4.1c-3.7,0.8-7.5,0.7-11.3,0.7c-2.9,0-6.2,0.7-8.2,2.9c-2.1,2.3-1.3,5.8,0.9,7.7c2.7,2.4,6.7,2.6,9.5,1.9  c2.2-0.5,4.3-1.5,6.3-2.4c2.6-1.2,5-2.3,7.8-2.6c4.6-0.5,7.9,2.4,11.7,4.5c6,3.3,13.3,6.6,20.2,4.1C84.6,82.4,88.9,74.5,87.3,67.5z   M36.5,33.2c-3.1-0.4-6.3-0.8-9.3-1.6c-2.1-0.6-4.1-1.4-5.9-2.7c-1.5-1.1-3-2.2-3.3-3.7c-0.6-3,2-5.6,4.5-7c2-1.1,4.5-1.9,7.3-2.4  c10.7-1.8,21.7,4.3,28,12.7c2.6,3.5,4.4,7.6,5.2,11.9c0.1,0.7,0.3,1.5,0.4,2.3c0,0.1,0,0.1,0,0.2c-0.7-0.4-1.3-0.8-1.9-1.2  c-5.1-3.1-10.8-5.4-16.6-6.9C42,34,39.3,33.6,36.5,33.2z M59.9,49.8c-2-2.6-4-5.3-6.4-7.7c-0.9-0.9-1.9-1.8-2.8-2.6  c3.2,1.2,6.3,2.8,9.3,4.5c1.7,1,3.4,2.1,5,3.3c1.9,1.4,3.8,2.9,5.4,4.5c1.9,1.9,3.1,3.7,3.7,5.6c0,0.1,0,0.1,0.1,0.2  c-2.4-0.2-4.9-0.2-7.5,0.2C64.1,55.3,62,52.5,59.9,49.8z M38.4,75.4c-0.7,0.3-1.3,0.6-2,0.9c-3.2,1.5-6.2,3-9.7,2.3  c-0.9-0.2-2.1-0.6-3-1.5c-0.8-0.8-1.1-1.7-0.9-2.6s0.9-1.7,1.9-2.2c1.6-0.7,3.5-0.8,5.1-0.9c0.5,0,1,0,1.5,0c3.5,0,7.1,0.6,11.1,1.9  c0.4,0.2,0.8,0.3,1.3,0.4c-1.1,0.2-2.1,0.5-3.1,0.8C39.9,74.7,39.3,75,38.4,75.4z M83.3,76.2c-2.1,4-6.2,6.8-10.8,6.7  c-4.1-0.1-7.7-1.6-11.3-3.4c-4-1.9-7.7-4.4-11.6-6.4c-2.3-1.2-4.3-2-6.3-2.6h-0.1c0.1,0,0.2-0.1,0.3-0.1c3.2-1,6.1-2.8,9-4.4  c3.1-1.6,6.2-3.1,9.5-4.2c6-1.8,13.4-2.8,18.8,0.8C85.5,65.8,85.7,71.6,83.3,76.2z"/><text x="0" y="115" fill="#000000" font-size="5px" font-weight="bold" font-family="'Helvetica Neue', Helvetica, Arial-Unicode, Arial, Sans-serif"></text><text x="0" y="120" fill="#000000" font-size="5px" font-weight="bold" font-family="'Helvetica Neue', Helvetica, Arial-Unicode, Arial, Sans-serif"></text></svg>